<svg aria-hidden="true" style="position: absolute; width: 0; height: 0; overflow: hidden;" version="1.1" xmlns="http://www.w3.org/2000/svg" xmlns:xlink="http://www.w3.org/1999/xlink">
<defs>
<symbol id="comment" viewBox="0 0 32 32">
<path d="M26.46 4h-20.92c-1.955 0-3.54 1.585-3.54 3.54v14.88c-0 0.012-0 0.026-0 0.040 0 1.955 1.585 3.54 3.54 3.54 0 0 0 0 0 0h0.46v6l8.32-6h12.12c0.006 0 0.013 0 0.020 0 1.955 0 3.54-1.585 3.54-3.54 0-0.014-0-0.028-0-0.042l0 0.002v-14.88c0-1.955-1.585-3.54-3.54-3.54v0zM27.2 22.42c-0.011 0.404-0.336 0.729-0.739 0.74l-0.001 0h-20.92c-0.404-0.011-0.729-0.336-0.74-0.739l-0-0.001v-14.88c0.011-0.404 0.336-0.729 0.739-0.74l0.001-0h20.92c0.404 0.011 0.729 0.336 0.74 0.739l0 0.001z"></path>
</symbol>
<symbol id="download" viewBox="0 0 32 32">
<path d="M4 26.2v3.6h24v-3.6zM25.020 14.94l-2-2-5.62 5.66v-16.6h-2.8v16.6l-5.64-5.64-2 2 9.040 9.040z"></path>
</symbol>
<symbol id="like" viewBox="0 0 32 32">
<path d="M16.334 7.79c-4.898-7.565-14.81-3.444-14.81 4.797 0 6.188 13.589 15.868 14.81 17.127 1.229-1.259 14.142-10.939 14.142-17.127 0-8.178-9.236-12.362-14.142-4.797z"></path>
</symbol>
<symbol id="view" viewBox="0 0 32 32">
<path d="M29.8 15.4c-0.2-0.3-6.2-8.4-13.8-8.4s-13.6 8.1-13.8 8.4c-0.3 0.4-0.3 0.8 0 1.2 0.2 0.3 6.2 8.4 13.8 8.4s13.6-8.1 13.8-8.4c0.3-0.4 0.3-0.8 0-1.2zM16 21c-2.8 0-5-2.2-5-5s2.2-5 5-5 5 2.2 5 5-2.2 5-5 5z"></path>
</symbol>
</defs>
</svg>
